# xmcd
#
# Track frame offsets:
#   150
#   14099
#   32084
#   55539
#   68767
#   84381
#
# Disc length: 1348 seconds
#
# Revision: 0
# Processed by: cddbd v1.5.2PL0 Copyright (c) Steve Scherf et al.
# Submitted via: GXTranscoder 2.0.1939
#
DISCID=43054206
DTITLE=m - m
DYEAR=1900
DGENRE=Blues
TTITLE0=Revolverheld - Helden 08
TTITLE1=Reveolverheld - Helden 08 (Remix)
TTITLE2=Cosmo Klein - I'll make you feel
TTITLE3=h
TTITLE4=l
TTITLE5=e
EXTD=
EXTT0=
EXTT1=
EXTT2=
EXTT3=
EXTT4=
EXTT5=
PLAYORDER=
